<?xml version="1.0" standalone="no"?>
<!DOCTYPE svg PUBLIC "-//W3C//DTD SVG 20010904//EN"
 "http://www.w3.org/TR/2001/REC-SVG-20010904/DTD/svg10.dtd">
<svg version="1.0" xmlns="http://www.w3.org/2000/svg"
 width="592.000000pt" height="92.000000pt" viewBox="0 0 592.000000 92.000000"
 preserveAspectRatio="xMidYMid meet">

<g transform="translate(0.000000,92.000000) scale(0.100000,-0.100000)"
fill="#000000" stroke="none">
<path d="M4003 893 c9 -2 23 -2 30 0 6 3 -1 5 -18 5 -16 0 -22 -2 -12 -5z"/>
<path d="M1799 881 c13 -3 28 -15 32 -26 5 -14 8 -15 8 -4 1 21 -19 39 -43 38
-18 -1 -18 -2 3 -8z"/>
<path d="M3950 868 c-11 -12 -20 -28 -20 -35 0 -7 -8 -13 -17 -13 -11 0 -14
-3 -7 -8 23 -15 97 -197 102 -250 5 -60 -15 -126 -55 -172 -14 -17 -20 -30
-15 -30 15 0 60 71 78 123 9 26 14 63 12 82 -2 18 0 31 5 28 5 -3 6 8 2 27 -5
24 -4 31 5 25 8 -5 11 0 9 16 -3 30 10 61 22 53 5 -3 9 0 9 6 0 19 -34 6 -46
-18 -11 -21 -11 -21 -29 17 -9 22 -30 52 -45 66 -31 30 -30 45 3 83 11 12 18
22 14 22 -3 0 -15 -10 -27 -22z m46 -163 c13 -27 24 -61 24 -74 0 -17 -14 3
-40 58 -22 45 -40 85 -40 88 0 17 37 -29 56 -72z"/>
<path d="M4067 866 c10 -13 20 -22 22 -20 2 2 19 -10 38 -27 38 -33 69 -35 87
-6 9 15 7 21 -8 33 -11 8 -27 14 -35 13 -9 0 -3 -5 12 -11 33 -12 33 -41 1
-46 -13 -2 -39 13 -71 43 -56 50 -74 58 -46 21z"/>
<path d="M4709 881 c13 -3 28 -15 32 -26 5 -14 8 -15 8 -4 1 21 -19 39 -43 38
-18 -1 -18 -2 3 -8z"/>
<path d="M1755 869 c-4 -6 -5 -12 -2 -15 2 -3 7 2 10 11 7 17 1 20 -8 4z"/>
<path d="M4665 869 c-4 -6 -5 -12 -2 -15 2 -3 7 2 10 11 7 17 1 20 -8 4z"/>
<path d="M1046 835 c-36 -34 -33 -43 5 -11 32 28 74 34 82 14 4 -10 6 -10 6 0
1 18 24 15 49 -8 25 -23 31 -80 8 -80 -20 0 -39 27 -32 45 3 8 1 15 -4 15 -16
0 -24 -52 -11 -71 16 -27 14 -39 -8 -39 -18 0 -23 14 -33 88 -1 10 -5 9 -17
-3 -15 -14 -14 -19 2 -48 l19 -32 -24 20 -23 20 19 -23 c11 -12 16 -25 13 -28
-10 -10 -78 26 -76 39 1 7 0 23 -1 37 -2 24 -3 23 -9 -5 -6 -29 -6 -29 -81
-31 -86 -1 -154 -26 -194 -69 -23 -24 -27 -25 -45 -13 -12 8 -18 17 -15 21 12
12 -8 45 -34 55 -66 25 -74 26 -70 1 2 -19 12 -25 46 -32 45 -9 55 -29 23 -46
-24 -13 -54 -4 -170 53 -52 25 -102 46 -110 46 -13 0 -14 2 -2 9 8 5 11 16 8
25 -4 9 -3 16 2 16 4 0 8 7 8 15 0 22 -18 6 -33 -31 -12 -28 -20 -34 -45 -34
-28 0 -134 -39 -126 -46 2 -2 19 1 38 6 45 13 139 -5 139 -27 0 -9 -6 -13 -14
-10 -37 14 -110 18 -158 8 -92 -20 -147 -72 -156 -147 -2 -25 -9 -47 -13 -50
-5 -3 -9 -10 -9 -15 0 -6 4 -8 9 -5 5 3 21 -14 35 -38 14 -24 38 -48 54 -55
24 -10 27 -16 24 -46 -3 -22 -8 -32 -17 -29 -7 3 -16 1 -20 -5 -3 -7 3 -11 15
-11 12 0 18 -4 15 -10 -4 -6 22 -38 57 -70 35 -33 79 -76 98 -94 48 -46 91
-66 142 -66 43 0 120 29 132 49 10 15 6 14 -39 -9 -68 -35 -175 -23 -213 23
-11 13 -5 13 45 1 61 -15 122 -16 162 -5 14 4 -14 7 -65 8 -134 1 -229 44
-271 121 -25 44 -36 102 -24 121 10 16 31 6 31 -15 0 -21 33 -83 69 -128 17
-21 31 -36 31 -32 0 9 83 -34 92 -48 5 -6 8 -7 8 -1 0 6 21 9 49 7 145 -10
283 98 237 186 -9 17 -23 38 -33 47 -15 15 -15 19 -2 29 21 15 31 46 16 46 -7
1 -1 10 12 20 17 15 19 20 7 20 -8 0 -25 -18 -36 -40 -24 -47 -20 -97 13 -144
19 -26 19 -31 6 -55 -8 -14 -32 -36 -54 -49 -33 -19 -50 -22 -103 -19 -34 3
-69 10 -77 17 -23 19 -13 21 34 4 47 -16 91 -12 129 12 27 18 29 50 3 63 -16
9 -18 8 -14 -9 3 -11 9 -17 14 -14 5 3 9 -2 9 -10 0 -8 -10 -20 -21 -27 -28
-14 -111 -15 -135 0 -21 11 -25 10 58 15 25 2 73 34 64 44 -3 2 2 22 10 44 8
22 14 57 14 78 0 59 11 104 22 88 6 -8 7 -2 3 19 -5 27 -2 37 21 58 15 14 23
25 19 25 -5 0 4 14 20 30 34 35 45 38 45 9 0 -11 -3 -18 -8 -15 -4 2 -16 -2
-27 -10 -17 -13 -18 -16 -5 -24 9 -5 19 -5 27 2 10 8 13 4 13 -19 0 -48 41
-114 86 -138 33 -17 39 -25 36 -48 -3 -23 -6 -26 -17 -17 -8 7 -19 9 -25 5 -7
-4 -1 -14 14 -26 13 -11 27 -33 31 -50 6 -28 21 -45 127 -145 45 -44 78 -64
100 -64 7 0 -5 9 -27 19 -22 10 -47 26 -55 36 -14 16 -12 17 20 10 19 -4 41
-10 48 -14 16 -9 161 5 192 19 l25 11 -25 -6 c-51 -13 -184 -14 -227 -3 -29 7
-48 18 -53 32 -5 12 -9 15 -9 8 -1 -9 -6 -10 -20 -2 -13 6 -17 16 -14 31 5 17
2 20 -18 17 -19 -2 -28 4 -41 32 -19 37 -23 96 -9 118 5 9 13 0 25 -31 9 -24
32 -62 51 -85 19 -22 35 -45 35 -52 0 -6 4 -9 9 -6 5 3 29 -3 52 -14 24 -11
54 -20 67 -20 12 0 22 -4 22 -8 0 -14 117 6 158 27 79 41 114 107 82 159 -10
16 -20 38 -22 48 -4 17 -5 17 -17 -4 -11 -21 -9 -28 14 -63 31 -48 27 -70 -18
-98 -72 -44 -170 -49 -182 -10 -4 11 -18 26 -33 34 l-27 14 43 1 c24 0 55 6
70 14 30 16 130 116 116 116 -5 0 -2 5 6 10 8 5 10 10 4 10 -12 0 -54 -45 -54
-59 0 -16 -38 -43 -45 -32 -3 6 -2 11 3 11 6 0 8 10 5 23 -3 16 -2 18 5 8 8
-11 11 -9 18 10 4 13 6 39 5 57 -1 18 3 32 10 32 6 0 8 -7 5 -16 -3 -8 -2 -12
4 -9 6 3 10 1 10 -6 0 -6 11 5 25 25 26 38 31 51 17 42 -5 -3 -26 0 -48 5 -33
9 -43 17 -53 46 -7 19 -33 55 -57 81 -24 25 -42 48 -39 50 9 9 80 9 98 0 9 -5
17 -16 17 -26 0 -14 2 -15 10 -2 8 13 13 12 37 -6 35 -27 40 -49 13 -64 -18
-9 -23 -7 -38 19 -12 23 -24 31 -44 31 -27 0 -27 -1 -10 -19 9 -11 22 -26 29
-34 12 -15 110 -34 120 -23 4 3 -9 6 -28 7 -31 0 -32 1 -11 9 12 5 25 16 28
25 5 11 11 12 27 4 22 -10 22 -10 2 6 -18 14 -21 14 -32 -2 -15 -20 -17 -9 -3
17 8 15 3 26 -26 56 l-35 38 23 18 c13 10 26 18 29 18 4 0 9 6 12 14 3 8 -14
1 -38 -16 -49 -34 -65 -31 -65 14 l0 31 28 -23 c15 -13 4 0 -25 28 -48 49 -55
52 -101 52 -38 0 -55 -5 -76 -25z m-68 -121 c2 -1 -12 -19 -30 -40 -34 -36
-35 -37 -91 -30 -31 4 -57 12 -57 17 0 5 -4 9 -10 9 -21 0 -9 -20 16 -26 l25
-6 -20 -22 c-26 -28 -27 -57 -1 -87 18 -23 19 -23 20 -4 0 11 -7 31 -17 44
-16 23 -15 25 6 43 13 10 36 18 52 18 l28 0 -26 -51 c-17 -32 -28 -73 -31
-110 -4 -51 -7 -59 -24 -59 -43 0 -124 116 -90 128 17 5 15 32 -3 32 -12 0
-14 7 -9 28 10 44 37 75 88 101 42 21 50 22 73 10 23 -12 27 -12 37 3 7 12 18
15 36 11 14 -3 27 -7 28 -9z m61 -33 c18 -25 19 -34 10 -54 -15 -34 -6 -67 36
-121 19 -25 32 -52 29 -59 -2 -7 4 -24 16 -37 25 -28 26 -67 3 -94 -18 -21
-18 -21 5 -2 26 22 28 55 7 96 -9 17 -11 30 -6 30 30 0 41 -91 16 -126 -8 -12
-13 -23 -10 -25 2 -2 -16 -5 -39 -7 -56 -3 -97 27 -94 68 1 16 6 26 10 24 4
-3 8 0 8 7 0 7 11 3 24 -10 29 -27 69 -25 74 4 3 11 1 17 -3 13 -10 -10 -86
34 -123 72 l-34 33 -25 -31 c-13 -18 -29 -32 -34 -32 -16 0 -10 29 9 39 16 10
16 10 -2 11 -16 0 -18 5 -12 45 3 25 11 55 17 67 11 21 12 21 25 3 19 -26 17
-34 -6 -28 -11 3 -20 0 -20 -6 0 -5 6 -8 14 -5 19 7 30 -14 16 -31 -9 -11 -7
-16 9 -25 19 -10 21 -8 21 18 0 15 -9 45 -20 66 -13 26 -16 44 -11 55 7 11 12
5 21 -29 8 -31 29 -62 70 -104 32 -34 61 -58 64 -56 2 3 -19 30 -47 60 -44 47
-52 60 -49 88 2 18 10 36 18 39 7 3 11 9 8 15 -11 17 -34 -14 -34 -46 0 -24
-3 -27 -10 -16 -13 20 -13 87 0 95 6 4 8 11 5 16 -15 24 26 5 44 -20z m41 -6
c0 -15 -21 -12 -30 5 -11 20 -10 21 9 10 12 -6 21 -13 21 -15z m-542 -61 c30
-6 67 1 122 23 8 4 -2 -13 -23 -37 -41 -45 -67 -95 -67 -132 -1 -18 -6 -12
-25 23 -13 26 -40 64 -60 84 -19 21 -35 42 -35 48 0 6 -3 7 -6 4 -4 -3 -16 -2
-28 4 -18 9 -19 8 -5 -3 9 -7 19 -24 23 -38 6 -22 4 -21 -23 10 -16 19 -27 38
-25 41 2 4 -3 12 -11 19 -35 29 -10 27 57 -5 40 -19 87 -38 106 -41z m-197 47
c9 -3 33 -28 53 -54 l37 -48 -21 -26 c-33 -43 -26 -87 25 -155 54 -72 64 -102
41 -127 -23 -26 -82 -34 -117 -16 -42 22 -49 18 -10 -6 40 -24 35 -37 -6 -16
-40 22 -89 76 -108 120 -15 37 -15 38 12 61 26 23 29 23 46 8 25 -22 18 -63
-13 -79 l-25 -13 28 0 c39 0 55 36 33 79 -9 17 -20 31 -25 31 -5 0 -6 19 -4
43 4 36 1 48 -22 76 l-28 32 29 30 c30 31 50 38 40 14 -4 -12 -2 -13 14 -2 19
11 19 12 -6 21 -21 7 -32 3 -64 -23 -25 -19 -50 -31 -69 -31 -43 0 -75 -34
-66 -68 4 -15 7 -38 7 -51 0 -21 2 -22 15 -8 13 13 13 20 2 50 -15 43 -1 67
38 67 20 0 24 -4 18 -17 -24 -56 -34 -91 -35 -118 -1 -31 -20 -65 -37 -65 -14
0 -63 39 -63 51 0 5 5 8 11 6 6 -1 13 3 16 9 2 7 -7 10 -24 8 -15 -2 -20 -1
-11 2 19 6 13 34 -7 34 -8 0 -12 15 -10 45 2 49 24 87 65 114 27 18 29 21 -27
-66 -38 -61 -39 -63 -14 -63 25 0 37 16 51 69 6 24 23 54 37 67 29 27 53 33
33 9 -10 -12 -10 -19 -2 -27 9 -9 12 -8 12 3 0 19 37 43 42 27 3 -7 12 -9 22
-5 9 4 15 11 11 17 -6 10 41 4 76 -9z m791 -28 c26 -28 68 -92 68 -104 0 -4
-7 -10 -16 -13 -20 -8 -114 70 -114 95 0 27 11 49 24 49 7 0 24 -12 38 -27z
m-1047 -82 c-8 -17 -20 -31 -25 -31 -5 0 0 16 12 35 25 43 36 40 13 -4z m445
-56 c27 -58 34 -114 20 -163 -12 -47 -30 -48 -30 -1 0 39 -20 76 -64 118 -36
35 -47 73 -24 87 6 4 19 -3 30 -16 24 -30 23 -42 -4 -36 -13 3 -6 -2 14 -10
43 -19 49 -30 59 -109 l7 -60 -2 66 c-2 67 -5 74 -71 165 -9 12 -13 29 -9 39
7 16 10 15 32 -11 13 -16 32 -47 42 -69z m-271 36 c9 -16 8 -18 -9 -14 -11 3
-20 0 -20 -6 0 -6 3 -10 8 -9 4 0 15 -2 25 -7 17 -7 17 -8 0 -21 -16 -12 -16
-15 -3 -24 12 -7 8 -10 -17 -10 -37 0 -40 10 -22 73 11 41 23 47 38 18z m957
-65 c3 -8 4 -29 2 -47 -3 -32 -3 -31 -14 14 -9 43 -1 67 12 33z m-211 -19 c13
-20 13 -27 -3 -60 -13 -30 -22 -37 -39 -34 -12 2 -20 0 -17 -4 3 -5 13 -9 23
-9 10 0 26 -11 35 -24 8 -14 26 -28 38 -32 22 -7 22 -8 -7 -15 -24 -7 -34 -4
-53 14 -31 29 -44 53 -49 94 -4 27 -1 35 19 42 16 7 18 10 6 10 -9 1 -24 -9
-32 -21 -9 -12 -16 -17 -16 -11 0 15 52 70 67 72 7 0 19 -9 28 -22z m-745 -26
c0 -5 -7 -14 -15 -21 -18 -15 -42 1 -31 19 8 13 46 15 46 2z m827 -186 c15
-13 23 -25 16 -25 -18 0 -83 32 -83 42 0 17 40 7 67 -17z"/>
<path d="M855 699 c-4 -6 -5 -12 -2 -15 2 -3 7 2 10 11 7 17 1 20 -8 4z"/>
<path d="M740 530 c-13 -8 -12 -10 3 -10 9 0 17 5 17 10 0 12 -1 12 -20 0z"/>
<path d="M1096 319 c3 -6 0 -15 -7 -20 -11 -7 -10 -9 4 -9 10 0 17 8 17 20 0
11 -5 20 -11 20 -5 0 -7 -5 -3 -11z"/>
<path d="M552 578 c-7 -7 -11 -23 -11 -37 l2 -26 4 25 c3 14 10 31 15 38 13
15 6 16 -10 0z"/>
<path d="M291 574 c0 -11 3 -14 6 -6 3 7 2 16 -1 19 -3 4 -6 -2 -5 -13z"/>
<path d="M342 548 c-7 -7 -12 -16 -12 -22 0 -5 6 -2 13 9 9 11 19 15 27 10 9
-5 11 -4 6 3 -9 15 -19 15 -34 0z"/>
<path d="M290 537 c0 -33 38 -92 101 -152 l63 -60 -47 53 c-27 29 -54 67 -62
85 -8 17 -14 26 -15 18 0 -21 -10 -7 -25 36 -8 21 -14 30 -15 20z"/>
<path d="M256 355 c-9 -26 -7 -32 5 -12 6 10 9 21 6 23 -2 3 -7 -2 -11 -11z"/>
<path d="M376 334 c9 -4 9 -14 1 -39 -8 -26 -7 -38 3 -50 16 -19 31 -20 24 -1
-3 8 0 24 6 36 16 29 4 60 -23 59 -12 0 -17 -3 -11 -5z"/>
<path d="M420 280 c0 -5 7 -7 15 -4 8 4 15 8 15 10 0 2 -7 4 -15 4 -8 0 -15
-4 -15 -10z"/>
<path d="M450 261 c-6 -12 -7 -21 -1 -21 10 0 24 30 17 37 -2 3 -9 -5 -16 -16z"/>
<path d="M1136 569 c21 -25 41 -44 44 -42 2 2 -16 23 -40 46 l-44 42 40 -46z"/>
<path d="M981 413 c0 -6 -4 -20 -7 -30 -5 -14 -4 -15 5 -7 7 7 11 20 8 30 -3
11 -5 14 -6 7z"/>
<path d="M3183 853 c9 -2 23 -2 30 0 6 3 -1 5 -18 5 -16 0 -22 -2 -12 -5z"/>
<path d="M5396 835 c-36 -34 -33 -43 5 -11 32 28 74 34 82 14 4 -10 6 -10 6 0
1 18 29 14 51 -8 23 -23 28 -80 6 -80 -20 0 -39 27 -32 45 3 8 1 15 -4 15 -16
0 -24 -52 -11 -71 16 -27 14 -39 -8 -39 -18 0 -23 13 -33 88 -2 19 -16 14 -23
-8 -4 -13 0 -32 11 -48 l17 -27 -24 20 -24 20 19 -23 c11 -12 16 -25 13 -28
-10 -10 -78 26 -76 39 1 7 0 23 -1 37 -2 24 -3 23 -9 -5 -6 -29 -6 -29 -81
-31 -86 -1 -154 -26 -195 -70 -21 -22 -27 -25 -40 -14 -12 10 -19 10 -27 2 -7
-7 -18 -12 -26 -12 -12 0 -12 3 -2 15 11 14 10 14 -16 5 -16 -6 -26 -8 -22 -5
10 10 -65 83 -97 95 -33 13 -96 13 -129 0 -17 -6 -27 -6 -32 2 -4 7 -3 8 4 4
18 -11 14 9 -3 24 -10 8 -13 21 -9 33 5 16 3 19 -10 14 -9 -4 -16 -1 -16 5 0
6 -3 8 -7 5 -4 -4 3 -21 15 -37 29 -39 28 -46 -4 -21 -50 39 -140 40 -186 1
-22 -19 -22 -19 17 0 49 25 100 25 145 2 42 -23 59 -47 44 -62 -8 -8 -23 -5
-52 10 -53 28 -104 28 -188 0 -56 -19 -73 -21 -98 -12 -40 16 -45 7 -7 -12 21
-11 58 -16 126 -16 72 0 104 -4 125 -16 35 -21 60 -64 60 -101 l-1 -28 -13 30
c-18 42 -69 83 -112 91 -19 3 -78 1 -131 -6 -76 -9 -97 -9 -103 1 -5 7 -16 9
-25 5 -16 -6 -16 -4 -4 11 13 17 12 17 -14 0 l-28 -18 -42 40 c-37 36 -41 43
-29 61 15 25 1 26 -21 2 -24 -26 -21 -70 8 -107 25 -33 23 -54 -3 -33 -22 19
-58 -30 -83 -114 -23 -75 -89 -164 -115 -154 -6 2 -20 -1 -30 -8 -13 -10 -14
-15 -4 -21 9 -5 11 -4 6 3 -5 8 5 11 33 8 33 -3 49 2 82 26 27 20 38 33 30 37
-9 6 -7 12 5 22 15 12 17 12 12 -1 -7 -20 25 -110 62 -175 27 -48 29 -54 13
-57 -10 -3 1 -5 25 -5 23 0 45 4 48 8 8 13 42 11 47 -3 3 -8 6 -6 6 5 1 11 -6
17 -19 17 -13 0 -18 5 -14 15 4 8 10 13 15 10 14 -9 29 29 18 46 -8 12 -10 12
-8 -1 1 -8 1 -20 0 -27 -2 -17 -50 -8 -66 13 -12 17 -11 19 8 22 65 10 91 99
42 147 -20 21 -36 27 -75 27 -3 1 -17 -2 -32 -6 -57 -13 -19 50 47 80 17 7 23
13 15 14 -8 0 -30 -9 -47 -20 -38 -23 -39 -21 -16 23 9 18 16 38 15 45 -4 17
25 15 32 -3 3 -8 1 -15 -4 -15 -6 0 -10 -4 -10 -10 0 -5 19 -9 43 -9 31 2 35
3 14 6 -21 3 -27 9 -23 20 3 8 6 23 6 34 0 14 7 19 25 19 14 0 25 -5 25 -11 0
-8 4 -8 13 -2 15 12 114 26 127 18 5 -3 1 -20 -10 -38 -25 -40 -25 -73 0 -114
24 -40 52 -55 93 -50 31 4 31 4 -5 5 -35 2 -66 22 -34 22 9 0 16 5 16 11 0 5
-4 8 -9 4 -5 -3 -17 3 -27 12 -10 10 -22 18 -28 18 -6 0 -12 15 -14 33 -3 27
4 40 37 74 39 38 44 40 87 35 53 -6 107 -51 123 -101 10 -32 8 -136 -3 -171
-3 -11 0 -6 8 10 8 17 15 56 16 87 0 65 14 85 18 27 4 -58 -14 -112 -54 -165
-19 -25 -34 -48 -31 -50 11 -11 102 86 123 131 15 31 24 42 24 29 0 -26 -44
-88 -94 -132 -44 -39 -37 -42 12 -5 30 22 34 24 28 7 -16 -38 -17 -58 -1 -24
9 19 23 42 31 52 9 9 13 21 10 27 -4 5 -1 13 5 17 8 5 10 2 5 -7 -4 -8 2 -3
13 11 68 84 77 81 108 -34 13 -49 33 -104 44 -122 11 -19 18 -37 16 -41 -6
-10 89 -10 99 -1 4 5 0 8 -9 8 -24 0 -54 45 -67 103 -7 28 -25 76 -41 106 -29
55 -27 70 10 71 8 0 11 3 8 7 -4 3 0 14 8 23 19 21 45 96 37 105 -4 4 2 5 13
3 15 -2 20 -11 20 -36 0 -17 -3 -32 -6 -32 -4 0 -10 -7 -13 -16 -5 -14 -4 -15
9 -4 10 9 15 9 15 1 0 -6 -15 -20 -32 -31 -18 -11 -27 -20 -20 -20 10 0 9 -5
-2 -22 -30 -43 -10 -109 28 -95 17 7 41 47 28 47 -6 0 -12 -9 -15 -20 -7 -28
-35 -25 -43 4 -6 25 14 74 39 95 8 6 20 25 27 40 6 16 20 31 31 34 15 4 19 0
19 -22 0 -46 42 -113 86 -136 33 -17 39 -25 36 -48 -3 -23 -6 -26 -17 -17 -8
7 -19 9 -25 5 -7 -4 -1 -14 14 -26 13 -11 27 -33 31 -50 6 -28 21 -45 127
-145 45 -44 78 -64 100 -64 7 0 -5 9 -27 19 -22 10 -47 26 -55 36 -14 16 -12
17 20 10 19 -4 41 -10 48 -14 16 -9 161 5 192 19 l25 11 -25 -6 c-51 -13 -184
-14 -227 -3 -29 7 -48 18 -53 32 -5 12 -9 15 -9 8 -1 -9 -6 -10 -20 -2 -13 6
-17 16 -14 31 5 17 2 20 -18 17 -19 -2 -28 4 -41 32 -19 37 -23 96 -9 118 5 9
13 0 25 -31 9 -24 32 -62 51 -85 19 -22 35 -45 35 -52 0 -6 4 -9 9 -6 5 3 29
-3 52 -14 24 -11 54 -20 67 -20 12 0 22 -4 22 -8 0 -14 117 6 158 27 79 41
114 107 82 159 -10 16 -20 38 -22 48 -4 17 -5 17 -17 -4 -11 -21 -9 -28 14
-63 31 -48 27 -70 -18 -98 -72 -44 -170 -49 -182 -10 -4 11 -18 26 -33 34
l-27 14 43 1 c24 0 55 6 70 14 30 16 130 116 116 116 -5 0 -2 5 6 10 8 5 10
10 4 10 -12 0 -54 -45 -54 -59 0 -16 -38 -43 -45 -32 -3 6 -2 11 4 11 6 0 7 7
4 17 -4 10 -2 14 5 9 14 -8 26 29 23 72 -1 18 3 32 10 32 6 0 8 -7 5 -16 -3
-8 -2 -12 4 -9 6 3 10 1 10 -6 0 -6 11 5 25 25 26 38 31 51 17 42 -5 -3 -26 0
-48 5 -33 9 -43 17 -53 46 -7 19 -33 55 -57 81 -24 25 -42 47 -39 50 2 2 21 6
43 7 27 2 53 -5 87 -23 62 -35 77 -58 50 -78 -18 -14 -22 -12 -45 16 -14 17
-34 30 -47 30 -22 0 -22 -1 -5 -19 9 -11 23 -27 31 -36 18 -22 79 -14 102 14
12 14 20 17 35 9 18 -9 18 -8 -1 7 -18 14 -21 14 -33 -2 -12 -16 -13 -15 -7
10 9 34 -11 67 -59 97 -29 17 -36 28 -36 53 l0 30 28 -23 c15 -13 4 0 -25 28
-48 49 -55 52 -101 52 -38 0 -55 -5 -76 -25z m-564 -127 l30 -21 -23 -19 -24
-19 24 11 c36 18 49 -3 19 -32 -13 -13 -17 -17 -8 -10 26 19 45 15 23 -5 -10
-10 -13 -14 -6 -9 8 5 16 6 19 3 9 -9 -6 -64 -20 -76 -18 -15 -40 12 -33 39 3
11 1 20 -3 20 -18 0 -16 -36 3 -57 25 -28 18 -37 -23 -28 -25 5 -30 11 -25 26
4 11 2 19 -4 19 -18 0 -12 20 7 21 16 1 16 2 0 6 -23 6 -23 15 2 46 11 14 20
29 20 33 0 4 8 16 18 27 9 11 11 17 4 13 -7 -5 -27 -26 -43 -48 l-29 -41 -1
29 c0 28 -17 79 -18 59 -1 -5 -5 -3 -10 5 -6 8 -7 18 -5 22 10 16 76 8 106
-14z m496 6 c2 -1 -12 -19 -30 -40 -34 -36 -35 -37 -91 -30 -31 4 -57 12 -57
17 0 5 -4 9 -10 9 -21 0 -9 -20 16 -26 l25 -6 -20 -22 c-26 -28 -27 -57 -1
-87 18 -23 19 -23 20 -4 0 11 -7 31 -17 44 -16 23 -15 25 6 43 13 10 36 18 52
18 l28 0 -26 -51 c-17 -32 -28 -73 -31 -110 -4 -51 -7 -59 -24 -59 -43 0 -124
116 -90 128 17 5 15 32 -3 32 -12 0 -14 7 -9 28 10 44 37 75 88 101 42 21 50
22 73 10 23 -12 27 -12 37 3 7 12 18 15 36 11 14 -3 27 -7 28 -9z m-596 -60
c19 -54 24 -144 8 -144 -5 0 -10 22 -10 48 0 31 -8 65 -24 95 -12 26 -21 49
-18 52 13 13 28 -5 44 -51z m657 27 c18 -25 19 -34 10 -54 -15 -34 -6 -67 36
-121 19 -25 32 -52 29 -59 -2 -7 4 -24 16 -37 25 -28 26 -67 3 -94 -18 -21
-18 -21 5 -2 26 22 28 55 7 96 -9 17 -11 30 -6 30 30 0 41 -91 16 -126 -8 -12
-13 -23 -10 -25 2 -2 -16 -5 -39 -7 -56 -3 -97 27 -94 68 1 16 6 26 10 24 4
-3 8 0 8 7 0 7 11 3 24 -10 29 -27 69 -25 74 4 3 11 1 17 -3 13 -10 -10 -86
34 -123 72 l-34 33 -25 -31 c-13 -18 -29 -32 -34 -32 -16 0 -10 29 9 39 16 10
16 10 -2 11 -16 0 -18 5 -12 45 3 25 11 55 17 67 11 21 12 21 25 3 19 -26 17
-34 -6 -28 -11 3 -20 0 -20 -6 0 -5 6 -8 14 -5 19 7 30 -14 16 -31 -9 -11 -7
-16 9 -25 19 -10 21 -8 21 18 0 15 -9 45 -20 66 -13 26 -16 44 -11 55 7 11 12
5 21 -29 8 -31 29 -62 70 -104 32 -34 61 -58 64 -56 2 3 -19 30 -47 60 -44 47
-52 60 -49 88 2 18 10 36 18 39 7 3 11 9 8 15 -11 17 -34 -14 -34 -46 0 -24
-3 -27 -10 -16 -13 20 -13 87 0 95 6 4 8 11 5 16 -15 24 26 5 44 -20z m41 -6
c0 -15 -21 -12 -30 5 -11 20 -10 21 9 10 12 -6 21 -13 21 -15z m52 -42 c26
-28 68 -92 68 -104 0 -4 -7 -10 -16 -13 -20 -8 -114 70 -114 95 0 27 11 49 24
49 7 0 24 -12 38 -27z m-432 -14 c0 -11 -4 -18 -9 -14 -6 3 -14 -2 -19 -11 -9
-15 -10 -15 -16 4 -9 27 0 42 25 42 13 0 19 -7 19 -21z m-920 -17 c0 -5 -11
-19 -25 -32 -14 -13 -25 -28 -25 -34 0 -6 12 4 26 22 14 17 30 32 36 32 5 0
-3 -15 -19 -33 -16 -18 -35 -49 -43 -68 -7 -18 -22 -45 -32 -58 -10 -13 -15
-27 -13 -31 6 -9 -12 -23 -33 -26 -13 -2 16 44 42 66 9 7 13 16 10 21 -2 5 2
21 10 37 8 16 13 32 10 35 -10 10 25 77 40 77 9 0 16 -4 16 -8z m620 -106 c0
-3 -4 -8 -10 -11 -5 -3 -10 -1 -10 4 0 6 5 11 10 11 6 0 10 -2 10 -4z m50 -17
c0 -6 -4 -7 -10 -4 -5 3 -10 11 -10 16 0 6 5 7 10 4 6 -3 10 -11 10 -16z m766
-13 c3 -8 4 -29 2 -47 -3 -32 -3 -31 -14 14 -9 43 -1 67 12 33z m-211 -19 c13
-20 13 -27 -3 -60 -13 -30 -22 -37 -39 -34 -12 2 -20 0 -17 -4 3 -5 13 -9 23
-9 10 0 26 -11 35 -24 8 -14 26 -28 38 -32 22 -7 22 -8 -7 -15 -24 -7 -34 -4
-53 14 -31 29 -44 53 -49 94 -4 27 -1 35 19 42 16 7 18 10 6 10 -9 1 -24 -9
-32 -21 -9 -12 -16 -17 -16 -11 0 15 52 70 67 72 7 0 19 -9 28 -22z m-1145
-12 c0 -18 16 -20 23 -2 3 6 10 -1 16 -17 9 -23 9 -31 -1 -37 -7 -5 -13 -16
-13 -26 0 -22 -37 -24 -47 -3 -5 12 -7 12 -7 -3 -1 -24 25 -32 57 -17 27 12
27 12 8 -9 -30 -33 -72 -28 -96 12 -25 40 -25 63 -2 76 9 6 12 11 5 11 -6 0
-15 -5 -19 -11 -4 -8 -9 -7 -15 2 -13 21 10 39 52 39 28 0 39 -4 39 -15z m531
-22 c-12 -20 -14 -14 -5 12 4 9 9 14 11 11 3 -2 0 -13 -6 -23z m696 -178 c15
-13 23 -25 16 -25 -18 0 -83 32 -83 42 0 17 40 7 67 -17z"/>
<path d="M5205 699 c-4 -6 -5 -12 -2 -15 2 -3 7 2 10 11 7 17 1 20 -8 4z"/>
<path d="M5090 530 c-13 -8 -12 -10 3 -10 9 0 17 5 17 10 0 12 -1 12 -20 0z"/>
<path d="M5446 319 c3 -6 0 -15 -7 -20 -11 -7 -10 -9 4 -9 10 0 17 8 17 20 0
11 -5 20 -11 20 -5 0 -7 -5 -3 -11z"/>
<path d="M5486 569 c21 -25 41 -44 44 -42 2 2 -16 23 -40 46 l-44 42 40 -46z"/>
<path d="M5331 413 c0 -6 -4 -20 -7 -30 -5 -14 -4 -15 5 -7 7 7 11 20 8 30 -3
11 -5 14 -6 7z"/>
<path d="M4178 412 c7 -5 10 -16 6 -25 -4 -11 -1 -17 8 -17 23 0 15 44 -8 48
-13 2 -15 1 -6 -6z"/>
<path d="M423 843 c9 -2 25 -2 35 0 9 3 1 5 -18 5 -19 0 -27 -2 -17 -5z"/>
<path d="M1272 838 c2 -6 15 -18 29 -26 23 -14 23 -14 4 3 -11 9 -19 21 -17
26 1 5 -3 9 -9 9 -6 0 -9 -5 -7 -12z"/>
<path d="M1956 838 c-7 -21 -3 -48 5 -43 4 3 5 14 2 25 -6 23 15 27 37 8 12
-11 12 -10 1 5 -16 20 -40 23 -45 5z"/>
<path d="M3117 830 c-13 -11 -27 -30 -30 -42 -5 -17 -18 -26 -49 -34 -24 -6
-69 -21 -100 -33 -44 -16 -63 -19 -83 -11 -37 14 -30 46 10 43 38 -2 75 5 75
15 0 12 -92 13 -106 1 -30 -25 -6 -70 44 -82 12 -3 62 1 110 8 48 7 90 11 94
9 4 -3 30 -47 57 -98 43 -79 51 -101 50 -142 l-2 -49 -7 55 c-4 31 -12 64 -18
75 -22 41 -69 75 -113 83 -36 6 -45 12 -47 31 -3 20 0 23 21 19 14 -3 32 -1
39 3 8 6 -3 9 -29 9 -41 0 -43 -2 -43 -28 0 -37 -45 -63 -64 -37 -6 9 -16 16
-21 15 -26 -6 -37 1 -30 18 5 13 4 14 -6 5 -10 -10 -9 -15 1 -28 10 -13 9 -15
-9 -15 -11 0 -21 6 -21 13 0 18 -32 47 -51 47 -8 -1 -2 -8 14 -16 28 -15 36
-34 14 -34 -18 0 -58 30 -52 40 4 7 -18 22 -37 24 -3 1 -10 5 -15 10 -5 5 -3
6 5 2 28 -16 9 14 -25 41 -54 42 -75 51 -30 14 20 -18 37 -39 37 -48 0 -8 18
-32 40 -54 22 -22 41 -44 41 -49 1 -6 3 -14 4 -20 1 -5 3 -12 4 -15 0 -3 10 4
21 15 19 19 63 26 93 14 13 -5 13 -9 -1 -37 -21 -39 -30 -47 -60 -47 -14 0
-26 8 -32 23 -7 17 -9 18 -9 5 -2 -34 -21 -18 -46 37 -13 31 -25 59 -27 63 -4
12 -60 51 -104 72 -68 33 -141 36 -241 10 -84 -22 -119 -23 -152 -1 -25 16 -1
34 37 27 20 -3 42 -1 49 6 20 17 15 26 -12 20 -14 -2 -37 3 -52 13 -16 10 -25
14 -21 10 4 -4 1 -17 -7 -29 -25 -34 -18 -51 31 -75 37 -19 55 -22 92 -17 26
3 70 9 97 12 178 22 318 -153 261 -326 -48 -147 -162 -214 -278 -162 -41 18
-45 22 -40 50 3 24 -3 38 -32 69 l-35 39 34 13 c36 13 60 43 51 64 -2 7 -5 6
-5 -4 -1 -9 -10 -24 -21 -34 -16 -14 -23 -16 -32 -7 -16 16 -38 15 -38 -2 0
-9 -7 -12 -20 -9 -16 4 -20 14 -20 47 0 71 19 118 67 164 l44 43 -38 -16 c-46
-19 -88 -58 -114 -105 l-20 -35 6 30 c3 17 18 48 32 69 l26 39 -47 -27 c-25
-15 -51 -24 -58 -20 -7 5 -8 3 -4 -5 5 -7 14 -10 22 -7 8 3 14 2 14 -2 8 -208
28 -269 109 -327 187 -136 450 -11 469 223 6 81 28 79 26 -4 -2 -73 -29 -138
-86 -201 l-42 -48 43 40 c58 54 92 125 99 202 4 52 8 63 23 63 9 0 24 3 33 6
10 4 17 -2 22 -20 20 -83 156 -104 185 -29 8 22 11 23 26 12 9 -8 0 10 -20 39
-21 28 -34 52 -29 52 15 0 64 -53 78 -84 7 -17 13 -24 14 -16 1 46 -74 113
-139 126 -36 8 -52 24 -22 24 31 0 123 -39 148 -62 13 -12 25 -35 27 -52 12
-76 13 -116 5 -110 -5 3 -6 -2 -2 -12 5 -14 8 -13 19 7 18 32 17 110 -1 156
-8 21 -13 47 -12 58 1 12 -3 19 -12 17 -9 -2 -11 3 -7 14 5 12 2 15 -9 10 -10
-4 -19 3 -27 19 -16 35 -5 41 34 17 45 -28 68 -70 56 -101 -9 -26 -2 -74 15
-102 14 -23 -37 -125 -73 -147 l-25 -16 23 26 c14 15 19 28 14 32 -6 3 -14 21
-18 39 l-8 32 -6 -45 -5 -45 -49 3 c-54 3 -66 -6 -66 -51 0 -36 41 -75 97 -90
47 -12 52 -30 10 -35 -18 -2 -27 -9 -26 -20 0 -11 3 -12 6 -4 8 21 32 13 39
-12 3 -14 16 -33 27 -43 22 -18 22 -18 5 3 -32 38 -19 49 17 14 25 -24 34 -42
33 -59 -2 -18 2 -26 15 -27 12 -1 13 0 2 3 -16 5 -19 15 -8 26 3 4 13 1 21 -6
13 -9 14 -9 8 0 -4 8 -2 13 8 13 8 0 18 4 21 10 3 6 -2 8 -12 5 -12 -4 -11 -2
3 6 26 13 44 50 44 86 l0 27 32 -30 c18 -16 8 -1 -21 33 -52 62 -82 88 -42 37
22 -28 30 -104 11 -104 -5 0 -10 10 -10 23 0 12 -6 29 -13 38 -17 23 -78 59
-102 60 -17 1 -16 2 5 10 17 5 8 7 -30 4 -69 -6 -125 12 -125 40 0 16 6 20 29
18 17 -1 35 2 42 8 16 13 24 -10 12 -33 -6 -13 -5 -18 4 -18 27 0 58 13 52 21
-3 5 3 6 12 2 11 -4 15 -2 11 4 -4 6 3 19 15 29 11 11 34 37 49 58 17 22 29
32 29 23 0 -9 -4 -19 -10 -22 -5 -3 -10 -12 -10 -18 0 -7 5 -4 11 6 6 9 14 15
19 12 5 -3 -14 -27 -43 -52 -28 -25 -55 -48 -59 -52 -4 -3 13 -6 37 -6 25 0
45 4 45 8 0 11 33 5 43 -8 5 -6 7 -4 4 5 -2 8 -18 17 -37 20 -32 5 -31 6 43
44 85 43 122 43 157 -1 36 -46 23 -101 -29 -123 -53 -22 -113 26 -81 65 11 13
15 13 33 0 28 -19 53 -19 61 1 9 24 7 28 -9 14 -13 -10 -19 -10 -33 4 -24 21
-35 20 -55 -2 -24 -27 -21 -58 9 -81 69 -55 158 16 127 100 -9 24 -8 28 9 32
11 3 18 12 16 19 -6 16 -38 24 -38 9 0 -6 7 -8 15 -5 8 4 15 1 15 -5 0 -15
-14 -14 -69 6 l-48 16 -69 -32 -69 -32 30 31 c17 17 24 30 16 28 -7 -2 -16 4
-18 12 -3 9 -1 11 4 5 9 -12 9 -12 78 -1 27 4 62 14 77 22 16 8 39 12 52 8 19
-4 27 -1 36 16 9 16 9 25 1 33 -8 8 -11 5 -11 -10 0 -23 -14 -38 -29 -29 -12
8 21 75 37 76 22 0 71 -29 82 -49 15 -29 12 -51 -7 -51 -15 0 -16 -2 -3 -10
11 -7 18 -5 27 6 9 12 16 13 32 4 12 -6 21 -14 21 -19 0 -11 99 4 112 17 20
20 35 14 47 -18 7 -20 7 -39 1 -56 -13 -33 -13 -31 11 -37 12 -3 19 -4 17 -1
-3 2 19 28 48 58 42 43 54 64 64 108 22 99 -20 202 -101 244 -42 21 -113 17
-205 -13 -70 -23 -87 -25 -109 -15 -17 8 -25 19 -23 30 3 13 14 17 53 17 56 0
75 8 75 33 0 11 -3 13 -11 5 -7 -7 -23 -7 -50 0 -33 8 -43 7 -59 -8 -11 -10
-20 -28 -20 -40 0 -54 74 -75 195 -56 60 9 74 8 105 -7 100 -49 130 -214 55
-299 l-24 -28 25 50 c21 41 25 61 22 108 -9 128 -111 183 -264 143 -79 -21
-102 -20 -100 0 0 9 -5 19 -13 22 -8 3 -11 0 -7 -7 16 -25 -21 -8 -43 20 -20
26 -22 34 -12 55 16 37 14 40 -9 11 -18 -22 -25 -25 -46 -17 -14 6 -50 10 -80
10 -53 0 -54 1 -54 28 0 17 -10 37 -23 50 -29 27 -41 28 -27 2 6 -11 17 -20
25 -20 16 0 21 -47 7 -65 -25 -34 -40 -36 -76 -13 -20 13 -36 28 -36 34 0 16
22 34 43 34 15 0 18 -5 14 -21 -4 -16 -3 -19 5 -11 17 17 1 42 -27 42 -17 0
-29 -8 -37 -25 -14 -30 -58 -36 -58 -7 0 24 19 42 45 42 15 0 17 2 6 9 -11 7
-11 9 0 14 8 3 9 6 3 6 -6 1 -23 -8 -37 -19z m268 -112 c29 -13 28 -35 -1 -30
-15 2 -16 1 -5 -7 12 -8 13 -14 2 -37 -7 -16 -15 -23 -19 -17 -11 16 -49 33
-76 33 -22 0 -55 34 -44 45 23 24 104 31 143 13z m70 -85 c3 -20 1 -33 -5 -33
-9 0 -15 29 -11 53 0 4 -3 7 -9 7 -5 0 -10 8 -10 17 0 29 28 -7 35 -44z m-25
-16 c0 -4 -9 -3 -20 3 -17 9 -20 8 -20 -8 0 -10 6 -27 14 -38 18 -24 2 -51
-20 -33 -18 15 -18 53 2 90 15 29 16 30 29 12 8 -10 15 -22 15 -26z m427 -1
c41 -45 55 -96 42 -154 -5 -25 -14 -52 -19 -61 -7 -13 -10 -11 -15 11 -4 15
-13 32 -20 38 -10 9 -11 18 -4 38 22 57 -22 122 -82 122 -22 0 -29 5 -29 19 0
44 82 35 127 -13z m-144 14 c-3 -12 0 -20 7 -20 9 0 7 -6 -5 -20 -19 -21 -15
-51 10 -84 12 -16 18 -17 27 -8 9 9 5 19 -17 42 -23 24 -26 32 -15 45 23 28
90 14 104 -21 5 -14 4 -15 -9 -4 -13 11 -14 8 -8 -21 3 -19 11 -37 17 -41 18
-12 -4 -22 -42 -19 -26 1 -46 -4 -64 -19 -23 -18 -30 -19 -48 -8 -11 7 -20 16
-20 21 0 4 5 5 10 2 13 -8 50 3 50 15 0 5 -14 7 -30 3 -17 -3 -30 -2 -29 3 4
22 -2 34 -16 34 -34 0 -9 77 33 103 36 22 51 21 45 -3z m-386 -3 c7 -4 10 -34
9 -83 -2 -69 -1 -73 11 -50 8 14 18 27 23 27 6 1 14 2 19 3 5 0 13 4 17 9 4 4
12 7 17 7 5 0 -3 -17 -19 -37 l-27 -38 26 24 c15 13 29 32 33 43 3 10 10 18
15 18 19 0 8 -30 -24 -64 -31 -33 -38 -35 -83 -32 -27 2 -51 4 -54 5 -3 1 -5
41 -5 91 0 91 4 100 42 77z m302 -22 c-11 -16 -19 -43 -19 -58 0 -27 -1 -28
-22 -13 -12 9 -30 16 -40 16 -10 0 -18 7 -18 15 0 8 7 15 15 15 8 0 15 4 15 9
0 5 13 14 30 21 16 7 28 15 26 19 -3 4 3 7 13 7 17 0 17 -2 0 -31z m-825 19
c9 -3 13 -10 10 -15 -8 -14 -21 -11 -28 6 -6 17 -4 18 18 9z m786 -3 c-8 -5
-26 -12 -40 -15 l-25 -7 25 15 c14 9 32 15 40 15 13 0 13 -1 0 -8z m-165 -21
c3 -5 -1 -10 -9 -10 -9 0 -16 5 -16 10 0 6 4 10 9 10 6 0 13 -4 16 -10z m-410
-15 c37 -12 38 -13 12 -14 -16 -1 -37 -6 -48 -11 -34 -19 -18 -81 21 -79 9 0
6 4 -7 9 -24 10 -33 42 -10 36 6 -3 28 -7 47 -10 25 -4 31 -3 20 4 -8 5 -28
10 -43 10 -37 0 -31 24 7 28 39 5 56 -14 56 -60 0 -35 -2 -39 -15 -28 -13 11
-14 10 -9 -4 5 -12 2 -15 -10 -10 -11 4 -16 1 -16 -10 0 -29 -55 -20 -84 15
-32 38 -33 59 -3 60 l22 2 -22 4 c-27 5 -29 20 -7 51 17 25 32 26 89 7z m455
-10 c0 -8 -7 -15 -16 -15 -14 0 -14 3 -4 15 7 8 14 15 16 15 2 0 4 -7 4 -15z
m-243 -47 c-2 -13 -4 -5 -4 17 -1 22 1 32 4 23 2 -10 2 -28 0 -40z m583 -68
c0 -15 -36 -30 -71 -30 -31 0 -32 0 -14 20 19 21 85 29 85 10z m-1490 -110
c21 -15 27 -26 22 -42 -3 -14 -2 -19 6 -14 7 4 12 1 12 -9 0 -9 5 -13 10 -10
6 3 10 -3 10 -14 0 -46 -43 -12 -83 66 -26 50 -22 55 23 23z m894 -156 c12 -4
13 -10 4 -24 -9 -13 -7 -23 5 -41 10 -13 17 -18 17 -11 0 6 10 11 23 11 16 -1
18 -2 5 -6 -10 -2 -18 -11 -18 -19 0 -23 -19 -16 -62 24 -55 52 -39 91 26 66z
m60 -39 c3 -8 -5 -15 -20 -18 -29 -5 -41 8 -24 28 13 15 36 10 44 -10z"/>
<path d="M3313 555 c0 -38 2 -53 4 -32 2 20 2 52 0 70 -2 17 -4 1 -4 -38z"/>
<path d="M3365 494 c-9 -14 -15 -27 -13 -30 2 -2 12 10 22 26 21 37 15 40 -9
4z"/>
<path d="M3997 843 c-3 -5 9 -9 26 -10 26 -1 28 0 12 7 -26 11 -33 12 -38 3z"/>
<path d="M4866 838 c-7 -21 -3 -48 5 -43 4 3 5 14 2 25 -6 23 15 27 37 8 12
-11 12 -10 1 5 -16 20 -40 23 -45 5z"/>
<path d="M5622 838 c2 -6 15 -18 29 -26 23 -14 23 -14 4 3 -11 9 -19 21 -17
26 1 5 -3 9 -9 9 -6 0 -9 -5 -7 -12z"/>
<path d="M1741 834 c-1 -6 8 -23 19 -37 28 -35 25 -42 -6 -18 -50 39 -140 40
-186 1 -22 -19 -22 -19 17 0 49 25 100 25 145 2 42 -23 59 -47 44 -62 -8 -8
-23 -5 -52 10 -53 28 -104 28 -188 0 -56 -19 -73 -21 -98 -12 -40 16 -45 7 -7
-12 21 -11 58 -16 126 -16 72 0 104 -4 125 -16 35 -21 60 -64 60 -101 l-1 -28
-13 30 c-18 42 -69 83 -112 91 -19 3 -77 1 -130 -6 -94 -11 -95 -11 -115 12
-11 13 -18 18 -15 11 4 -6 2 -14 -4 -18 -5 -3 -10 -1 -10 6 0 7 -2 10 -5 8 -2
-3 -2 -14 1 -25 5 -19 10 -20 72 -12 89 11 97 7 72 -34 -25 -41 -25 -74 0
-115 24 -40 52 -55 93 -50 31 4 31 4 -5 5 -35 2 -66 22 -34 22 9 0 16 5 16 11
0 5 -4 8 -9 4 -5 -3 -17 3 -27 12 -10 10 -22 18 -28 18 -6 0 -12 15 -14 33 -3
27 4 40 37 74 39 38 44 40 87 35 53 -6 107 -51 123 -101 10 -32 8 -136 -3
-171 -3 -11 0 -6 8 10 8 17 15 56 16 87 0 65 14 85 18 27 4 -58 -14 -112 -54
-165 -19 -25 -34 -48 -31 -50 11 -11 102 86 123 131 15 31 24 42 24 29 0 -26
-44 -88 -94 -131 -44 -40 -37 -43 12 -6 30 22 34 24 28 7 -16 -38 -17 -58 -1
-24 9 19 23 42 31 52 9 9 13 21 10 27 -4 5 -1 13 5 17 8 5 10 2 5 -7 -4 -8 2
-3 13 11 68 84 77 81 108 -34 13 -49 33 -104 44 -122 11 -19 18 -37 16 -41 -6
-10 90 -9 100 0 3 4 -1 7 -10 7 -24 0 -54 45 -67 103 -7 28 -25 76 -41 106
-29 55 -27 70 10 71 8 0 11 3 8 7 -4 3 0 14 8 23 19 21 45 96 37 105 -4 4 2 5
13 3 15 -2 20 -11 20 -36 0 -17 -3 -32 -6 -32 -4 0 -10 -7 -13 -16 -5 -14 -4
-15 9 -4 10 9 15 9 15 1 0 -6 -15 -20 -32 -31 -18 -11 -27 -20 -20 -20 10 0 9
-5 -2 -22 -30 -43 -10 -109 28 -95 17 7 41 47 28 47 -6 0 -12 -9 -15 -20 -7
-28 -35 -25 -43 4 -6 26 6 56 42 98 17 21 23 24 28 13 9 -23 52 -17 83 11 l28
26 -29 -21 c-28 -20 -75 -29 -77 -13 -6 53 -4 111 2 100 7 -11 9 -11 9 0 0 8
-9 16 -20 19 -15 4 -18 9 -10 18 10 12 51 13 85 0 11 -4 5 2 -12 14 -18 11
-35 32 -39 46 -6 24 -4 36 11 80 4 13 1 12 -9 -5 -8 -14 -15 -37 -16 -52 0
-21 -5 -27 -27 -30 -14 -2 -28 -10 -30 -18 -3 -9 -1 -11 4 -5 7 9 17 10 47 6
14 -2 -13 -28 -35 -34 -12 -3 -19 -3 -16 0 9 8 -69 82 -98 93 -33 13 -96 13
-129 0 -17 -6 -27 -6 -32 2 -4 7 -3 8 4 4 18 -11 14 9 -3 24 -10 8 -13 21 -9
33 5 15 3 19 -9 14 -9 -3 -18 -1 -21 6 -3 8 -5 8 -5 1z m181 -126 l30 -21 -23
-19 -24 -19 24 11 c36 18 49 -3 19 -32 -13 -13 -17 -17 -8 -10 26 19 45 15 23
-5 -10 -10 -13 -14 -6 -9 8 5 16 6 19 3 9 -9 -6 -64 -20 -76 -18 -15 -40 12
-33 39 3 11 1 20 -3 20 -18 0 -16 -36 3 -57 25 -28 18 -37 -23 -28 -25 5 -30
11 -25 26 4 11 2 19 -4 19 -18 0 -12 20 7 21 16 1 16 2 0 6 -23 6 -23 15 2 46
11 14 20 29 20 33 0 4 8 16 18 27 9 11 11 17 4 13 -7 -5 -27 -26 -43 -48 l-29
-41 -1 29 c0 28 -17 79 -18 59 -1 -5 -5 -3 -10 5 -6 8 -7 18 -5 22 10 16 76 8
106 -14z m-100 -54 c19 -54 24 -144 8 -144 -5 0 -10 22 -10 48 0 31 -8 65 -24
95 -12 26 -21 49 -18 52 13 13 28 -5 44 -51z m18 -158 c0 -3 -4 -8 -10 -11 -5
-3 -10 -1 -10 4 0 6 5 11 10 11 6 0 10 -2 10 -4z m50 -17 c0 -6 -4 -7 -10 -4
-5 3 -10 11 -10 16 0 6 5 7 10 4 6 -3 10 -11 10 -16z m-59 -66 c-12 -20 -14
-14 -5 12 4 9 9 14 11 11 3 -2 0 -13 -6 -23z"/>
<path d="M2476 831 c-3 -5 3 -11 15 -14 16 -4 18 -3 8 9 -13 16 -16 17 -23 5z"/>
<path d="M511 813 c7 -12 15 -20 18 -17 3 2 -3 12 -13 22 -17 16 -18 16 -5 -5z"/>
<path d="M2146 821 c-4 -5 3 -7 14 -4 23 6 26 13 6 13 -8 0 -17 -4 -20 -9z"/>
<path d="M3769 808 l-12 -23 24 20 c13 11 26 21 28 22 2 2 -3 3 -12 3 -9 0
-22 -10 -28 -22z"/>
<path d="M4081 817 c-1 -26 -43 -42 -72 -27 -23 11 -23 10 -5 -4 11 -9 25 -16
32 -16 21 0 57 36 51 51 -4 10 -6 9 -6 -4z"/>
<path d="M441 802 c-17 -31 -13 -40 5 -14 9 13 14 26 11 29 -3 2 -10 -4 -16
-15z"/>
<path d="M2428 813 c7 -3 16 -2 19 1 4 3 -2 6 -13 5 -11 0 -14 -3 -6 -6z"/>
<path d="M2755 810 c27 -12 43 -12 25 0 -8 5 -22 9 -30 9 -10 0 -8 -3 5 -9z"/>
<path d="M3420 799 c-7 -11 -10 -23 -7 -25 2 -2 9 7 15 21 14 30 7 33 -8 4z"/>
<path d="M3476 807 c3 -10 9 -15 12 -12 3 3 0 11 -7 18 -10 9 -11 8 -5 -6z"/>
<path d="M2710 795 c-7 -9 -11 -17 -9 -20 3 -2 10 5 17 15 14 24 10 26 -8 5z"/>
<path d="M1397 793 c-4 -3 -7 -13 -7 -22 1 -14 2 -14 10 1 8 14 15 14 45 5 29
-8 39 -8 50 4 13 13 8 15 -38 17 -30 1 -57 -1 -60 -5z"/>
<path d="M2369 783 c-13 -16 -12 -17 4 -4 9 7 17 15 17 17 0 8 -8 3 -21 -13z"/>
<path d="M4307 793 c-4 -3 -7 -13 -7 -22 1 -14 2 -14 10 1 8 14 15 14 45 5 29
-8 39 -8 50 4 13 13 8 15 -38 17 -30 1 -57 -1 -60 -5z"/>
<path d="M1062 770 c0 -14 2 -19 5 -12 2 6 2 18 0 25 -3 6 -5 1 -5 -13z"/>
<path d="M1985 764 c-9 -15 -12 -23 -6 -20 11 7 35 46 28 46 -3 0 -12 -12 -22
-26z"/>
<path d="M4895 764 c-9 -15 -12 -23 -6 -20 11 7 35 46 28 46 -3 0 -12 -12 -22
-26z"/>
<path d="M5412 770 c0 -14 2 -19 5 -12 2 6 2 18 0 25 -3 6 -5 1 -5 -13z"/>
<path d="M5651 770 c-13 -11 -19 -20 -13 -20 10 0 42 27 42 36 0 7 -4 5 -29
-16z"/>
<path d="M475 760 c-16 -7 -17 -9 -3 -9 9 -1 20 4 23 9 7 11 7 11 -20 0z"/>
<path d="M2171 753 c7 -12 15 -20 18 -17 3 2 -3 12 -13 22 -17 16 -18 16 -5
-5z"/>
<path d="M2600 760 c8 -5 20 -10 25 -10 6 0 3 5 -5 10 -8 5 -19 10 -25 10 -5
0 -3 -5 5 -10z"/>
<path d="M504 739 c-19 -22 -19 -22 4 -10 12 6 22 16 22 21 0 15 -5 12 -26
-11z"/>
<path d="M4170 740 c-8 -5 -12 -11 -10 -14 3 -2 14 2 24 10 22 15 10 19 -14 4z"/>
<path d="M1306 727 c3 -10 9 -15 12 -12 3 3 0 11 -7 18 -10 9 -11 8 -5 -6z"/>
<path d="M4216 727 c3 -10 9 -15 12 -12 3 3 0 11 -7 18 -10 9 -11 8 -5 -6z"/>
<path d="M4260 721 c0 -5 5 -13 10 -16 6 -3 10 -2 10 4 0 5 -4 13 -10 16 -5 3
-10 2 -10 -4z"/>
<path d="M5006 695 c4 -8 8 -15 10 -15 2 0 4 7 4 15 0 8 -4 15 -10 15 -5 0 -7
-7 -4 -15z"/>
<path d="M5704 670 c0 -13 4 -16 10 -10 7 7 7 13 0 20 -6 6 -10 3 -10 -10z"/>
<path d="M2466 673 c-4 -4 -24 -7 -44 -7 -34 1 -35 1 -4 -3 34 -4 63 -43 55
-73 -3 -10 1 -8 11 4 9 11 14 28 10 38 -5 16 -2 17 21 8 79 -30 132 -106 145
-209 6 -49 8 -51 9 -16 1 50 -16 112 -40 147 -14 19 -18 35 -13 54 6 23 4 26
-11 21 -13 -5 -16 -3 -11 8 3 8 0 15 -5 15 -7 0 -9 -11 -7 -24 l5 -23 -49 25
c-26 14 -48 29 -48 33 0 11 -14 12 -24 2z"/>
<path d="M2255 650 l-60 -7 48 -1 c32 -1 46 -6 41 -13 -3 -6 7 -4 22 4 16 8
36 17 44 20 19 7 -16 6 -95 -3z"/>
<path d="M1412 604 c-35 -19 -58 -34 -50 -34 7 0 40 16 73 35 78 45 59 44 -23
-1z"/>
<path d="M4322 604 c-35 -19 -58 -34 -50 -34 7 0 40 16 73 35 78 45 59 44 -23
-1z"/>
<path d="M1556 599 c-34 -27 -33 -48 4 -81 26 -23 32 -25 37 -11 4 10 -3 23
-20 35 -34 25 -34 44 1 62 15 8 22 15 16 16 -6 0 -23 -9 -38 -21z"/>
<path d="M4466 599 c-34 -27 -33 -48 4 -81 26 -23 32 -25 37 -11 4 10 -3 23
-20 35 -34 25 -34 44 1 62 15 8 22 15 16 16 -6 0 -23 -9 -38 -21z"/>
<path d="M2345 578 c-12 -30 -12 -33 3 -37 23 -4 52 -31 63 -56 7 -18 8 -18 8
-2 1 19 -35 61 -59 69 -12 4 -13 9 -3 31 7 15 10 27 7 27 -3 0 -11 -15 -19
-32z"/>
<path d="M2390 585 c-10 -12 -10 -19 -2 -27 9 -9 12 -8 12 5 0 9 8 21 18 26
15 9 15 10 1 11 -9 0 -22 -7 -29 -15z"/>
<path d="M2543 560 c38 -32 49 -54 22 -44 -8 4 -15 1 -15 -6 0 -7 8 -10 19 -7
16 4 19 0 18 -22 -1 -16 3 -25 10 -24 13 3 20 -18 26 -77 3 -28 4 -26 5 13 3
75 -42 158 -103 189 -11 5 -3 -4 18 -22z"/>
<path d="M1662 540 c0 -19 2 -27 5 -17 5 20 23 22 43 5 12 -11 12 -10 1 5 -7
9 -19 17 -26 17 -8 0 -16 6 -18 13 -3 6 -5 -4 -5 -23z"/>
<path d="M2449 554 c-26 -31 -14 -83 29 -128 74 -77 85 -106 56 -142 -10 -12
-14 -14 -11 -4 5 17 -19 44 -28 31 -3 -5 -2 -16 1 -25 5 -12 0 -16 -19 -16
-32 0 -39 19 -25 64 9 30 9 40 -3 51 -12 12 -14 11 -16 -8 -1 -12 -5 -38 -9
-58 -5 -31 -2 -39 17 -53 26 -18 69 -22 69 -6 0 5 3 9 8 9 21 -4 33 4 47 31
31 61 15 110 -60 178 -38 34 -46 48 -42 67 5 29 4 30 -14 9z"/>
<path d="M4572 540 c0 -19 2 -27 5 -17 5 20 23 22 43 5 12 -11 12 -10 1 5 -7
9 -19 17 -26 17 -8 0 -16 6 -18 13 -3 6 -5 -4 -5 -23z"/>
<path d="M4244 538 c19 -11 19 -11 1 -24 -16 -12 -16 -14 -3 -14 9 0 18 6 21
14 6 15 -11 36 -27 36 -6 0 -2 -6 8 -12z"/>
<path d="M2683 505 c0 -22 2 -30 4 -17 2 12 2 30 0 40 -3 9 -5 -1 -4 -23z"/>
<path d="M2350 526 c0 -2 8 -10 18 -17 15 -13 16 -12 3 4 -13 16 -21 21 -21
13z"/>
<path d="M4205 510 c-3 -5 -1 -10 4 -10 6 0 11 5 11 10 0 6 -2 10 -4 10 -3 0
-8 -4 -11 -10z"/>
<path d="M1678 475 c5 -11 12 -27 15 -35 5 -13 6 -13 6 1 1 8 -6 24 -15 35
-15 19 -15 19 -6 -1z"/>
<path d="M4588 475 c5 -11 12 -27 15 -35 5 -13 6 -13 6 1 1 8 -6 24 -15 35
-15 19 -15 19 -6 -1z"/>
<path d="M1624 464 c-18 -14 -18 -15 4 -4 12 6 22 13 22 15 0 8 -5 6 -26 -11z"/>
<path d="M2310 470 c20 -13 33 -13 25 0 -3 6 -14 10 -23 10 -15 0 -15 -2 -2
-10z"/>
<path d="M4534 464 c-18 -14 -18 -15 4 -4 12 6 22 13 22 15 0 8 -5 6 -26 -11z"/>
<path d="M1650 430 c0 -6 7 -10 15 -10 8 0 15 2 15 4 0 2 -7 6 -15 10 -8 3
-15 1 -15 -4z"/>
<path d="M2440 433 c1 -9 80 -99 80 -90 0 3 -18 27 -40 52 -22 25 -40 43 -40
38z"/>
<path d="M4560 430 c0 -6 7 -10 15 -10 8 0 15 2 15 4 0 2 -7 6 -15 10 -8 3
-15 1 -15 -4z"/>
<path d="M2350 409 c0 -5 5 -7 10 -4 6 3 10 8 10 11 0 2 -4 4 -10 4 -5 0 -10
-5 -10 -11z"/>
<path d="M1660 404 c0 -4 7 -12 16 -18 14 -10 13 -15 -6 -39 -26 -33 -19 -48
9 -23 11 10 17 25 14 34 -4 10 -2 13 5 8 8 -5 9 -1 3 16 -8 21 -41 39 -41 22z"/>
<path d="M1861 400 c-1 -25 13 -40 29 -30 13 8 12 10 -2 10 -9 0 -19 8 -21 18
-3 12 -5 13 -6 2z"/>
<path d="M3750 388 c-15 -19 -17 -20 -33 -4 -9 10 -17 13 -17 7 0 -15 36 -32
54 -25 9 3 16 12 16 19 0 7 6 16 13 18 8 4 7 6 -3 6 -8 0 -22 -9 -30 -21z"/>
<path d="M4570 404 c0 -4 7 -12 16 -18 14 -10 13 -15 -6 -39 -26 -33 -19 -48
9 -23 11 10 17 25 14 34 -4 10 -2 13 5 8 8 -5 9 -1 3 16 -8 21 -41 39 -41 22z"/>
<path d="M4771 400 c-1 -25 13 -40 29 -30 13 8 12 10 -2 10 -9 0 -19 8 -21 18
-3 12 -5 13 -6 2z"/>
<path d="M1537 375 c-42 -41 4 -116 78 -128 22 -4 49 -14 60 -22 19 -15 16
-16 -42 -12 -69 6 -128 35 -138 68 -4 11 -9 18 -12 15 -3 -3 2 -17 11 -32 24
-36 90 -64 154 -64 33 0 52 -4 52 -12 0 -6 7 -3 15 8 16 19 16 19 28 -1 18
-29 67 -75 81 -75 6 0 -1 8 -16 18 -27 16 -41 40 -15 26 6 -4 2 3 -10 15 -28
27 -29 43 -3 66 11 10 20 13 20 7 0 -6 10 -1 23 11 12 12 18 25 14 28 -5 4 -2
20 7 37 25 49 19 50 -12 1 -34 -52 -67 -83 -80 -75 -5 3 -13 -4 -16 -17 -7
-21 -7 -21 -19 -3 -24 38 -47 55 -89 67 -79 21 -99 31 -96 48 3 11 12 15 28
13 60 -7 73 -6 77 3 2 6 -5 11 -14 12 -10 1 -30 5 -44 8 -18 5 -31 1 -42 -10z
m293 -89 c0 -2 -8 -10 -17 -17 -16 -13 -17 -12 -4 4 13 16 21 21 21 13z"/>
<path d="M4447 375 c-42 -41 4 -116 78 -128 22 -4 49 -14 60 -22 19 -15 16
-16 -42 -12 -69 6 -128 35 -138 68 -4 11 -9 18 -12 15 -3 -3 2 -17 11 -32 24
-36 90 -64 154 -64 33 0 52 -4 52 -12 0 -6 7 -3 15 8 16 19 16 19 28 -1 18
-29 67 -75 81 -75 6 0 -1 8 -16 18 -27 16 -41 40 -15 26 6 -4 2 3 -10 15 -28
27 -29 43 -3 66 11 10 20 13 20 7 0 -6 10 -1 23 11 12 12 18 25 14 28 -5 4 -2
20 7 37 25 49 19 50 -12 1 -34 -52 -67 -83 -80 -75 -5 3 -13 -4 -16 -17 -7
-21 -7 -21 -19 -3 -24 38 -47 55 -89 67 -79 21 -99 31 -96 48 3 11 12 15 28
13 60 -7 73 -6 77 3 2 6 -5 11 -14 12 -10 1 -30 5 -44 8 -18 5 -31 1 -42 -10z
m293 -89 c0 -2 -8 -10 -17 -17 -16 -13 -17 -12 -4 4 13 16 21 21 21 13z"/>
<path d="M3220 348 c-19 -16 -26 -26 -15 -20 18 9 64 53 54 52 -2 -1 -20 -15
-39 -32z"/>
<path d="M2633 318 c-12 -27 -27 -47 -32 -44 -5 4 -13 1 -17 -5 -4 -8 -3 -9 4
-5 7 4 12 2 12 -3 0 -6 -8 -11 -17 -11 -10 0 -29 -10 -43 -21 l-25 -20 40 16
c44 18 97 63 89 76 -3 5 0 18 6 29 6 12 10 25 8 30 -2 4 -13 -14 -25 -42z"/>
<path d="M577 325 c-9 -19 -15 -35 -12 -35 7 0 37 61 33 66 -3 2 -12 -12 -21
-31z"/>
<path d="M1485 349 c-4 -6 -5 -12 -2 -15 2 -3 7 2 10 11 7 17 1 20 -8 4z"/>
<path d="M4395 349 c-4 -6 -5 -12 -2 -15 2 -3 7 2 10 11 7 17 1 20 -8 4z"/>
<path d="M1890 318 c13 -16 21 -28 17 -28 -3 0 5 -11 18 -25 33 -32 34 -84 3
-112 -30 -27 -47 -30 -78 -13 -22 12 -24 12 -13 -2 7 -8 10 -18 6 -21 -3 -4
-1 -7 6 -7 8 0 11 -7 7 -17 -5 -14 -2 -13 11 3 10 12 27 25 39 28 11 3 34 20
50 38 16 17 24 28 18 25 -7 -4 -13 8 -17 35 -4 32 -15 51 -48 82 -24 23 -33
29 -19 14z"/>
<path d="M2611 324 c0 -11 3 -14 6 -6 3 7 2 16 -1 19 -3 4 -6 -2 -5 -13z"/>
<path d="M4800 318 c13 -16 21 -28 17 -28 -3 0 5 -11 18 -25 33 -32 34 -84 3
-112 -30 -27 -47 -30 -78 -13 -22 12 -24 12 -13 -2 7 -8 10 -18 6 -21 -3 -4
-1 -7 6 -7 8 0 11 -7 7 -17 -5 -14 -2 -13 11 3 10 12 27 25 39 28 11 3 34 20
50 38 16 17 24 28 18 25 -7 -4 -13 8 -17 35 -4 32 -15 51 -48 82 -24 23 -33
29 -19 14z"/>
<path d="M3633 307 c-13 -10 -23 -26 -23 -36 0 -18 18 -41 33 -41 5 0 1 7 -7
16 -19 19 -20 25 -3 46 12 17 27 21 61 19 18 -1 18 -2 3 -19 -23 -25 -21 -65
3 -87 15 -14 29 -16 65 -11 25 4 45 13 45 19 1 7 14 -3 30 -22 27 -32 28 -35
12 -48 -15 -13 -15 -14 0 -9 25 7 119 -26 114 -40 -7 -18 17 -35 34 -24 12 8
12 10 -3 10 -29 0 -14 23 20 32 17 4 42 20 54 34 13 14 33 34 43 45 18 17 18
19 3 19 -10 0 -17 8 -17 19 0 11 -5 23 -11 26 -6 4 -8 13 -5 21 3 9 -1 14 -14
14 -10 0 -22 5 -25 10 -4 6 -16 8 -27 4 -13 -4 -18 -2 -14 4 10 16 -56 20 -89
6 l-30 -14 41 6 c44 7 97 -12 75 -26 -9 -5 -8 -9 4 -13 11 -5 14 -3 9 5 -5 8
-2 9 11 4 15 -5 16 -4 5 9 -7 8 -8 15 -2 15 5 0 15 -6 21 -13 19 -24 -52 -47
-94 -31 -13 6 -14 9 -3 16 9 7 6 8 -11 4 -15 -3 -43 5 -75 22 -66 34 -195 39
-233 9z m204 -61 c29 -17 53 -38 54 -46 0 -10 2 -11 6 -2 2 6 19 12 36 12 18
1 49 7 70 14 30 11 37 11 37 1 0 -7 -13 -18 -30 -24 -28 -9 -42 -31 -20 -31 6
0 10 4 10 10 0 5 7 7 15 4 10 -4 19 4 28 25 10 24 16 28 25 19 7 -7 12 -8 12
-2 0 6 -5 15 -12 22 -9 9 -9 12 0 12 7 0 13 -3 13 -7 12 -76 -1 -105 -55 -123
-37 -12 -61 -6 -50 11 3 6 -4 13 -16 16 -15 4 -20 11 -17 24 3 11 1 19 -4 19
-15 0 -10 -42 8 -62 9 -10 11 -18 5 -18 -6 0 -21 12 -33 27 -12 16 -19 20 -16
11 11 -31 -9 -20 -46 25 -20 24 -43 45 -51 46 -26 3 -60 3 -80 -1 -10 -1 -23
5 -30 15 -9 15 -7 21 9 33 26 19 66 10 132 -30z"/>
<path d="M1256 301 c-4 -6 0 -11 8 -11 23 0 20 -16 -6 -34 -12 -9 -18 -16 -12
-16 6 0 19 9 29 20 17 19 17 22 3 36 -11 11 -18 12 -22 5z"/>
<path d="M5606 301 c-4 -6 0 -11 8 -11 23 0 20 -16 -6 -34 -12 -9 -18 -16 -12
-16 6 0 19 9 29 20 17 19 17 22 3 36 -11 11 -18 12 -22 5z"/>
<path d="M2090 269 c0 -6 -8 -18 -17 -26 -16 -13 -16 -13 4 -3 27 13 36 27 23
35 -5 3 -10 1 -10 -6z"/>
<path d="M2805 269 c4 -5 -1 -20 -12 -32 l-18 -22 23 19 c23 20 30 46 11 46
-5 0 -7 -5 -4 -11z"/>
<path d="M5000 269 c0 -6 -8 -18 -17 -26 -16 -13 -16 -13 4 -3 27 13 36 27 23
35 -5 3 -10 1 -10 -6z"/>
<path d="M880 249 c0 -5 5 -7 10 -4 6 3 10 8 10 11 0 2 -4 4 -10 4 -5 0 -10
-5 -10 -11z"/>
<path d="M1170 244 c-24 -13 -24 -14 18 -14 39 0 42 2 28 15 -8 8 -16 15 -18
14 -2 -1 -14 -7 -28 -15z"/>
<path d="M5230 249 c0 -5 5 -7 10 -4 6 3 10 8 10 11 0 2 -4 4 -10 4 -5 0 -10
-5 -10 -11z"/>
<path d="M5520 244 c-24 -13 -24 -14 18 -14 39 0 42 2 28 15 -8 8 -16 15 -18
14 -2 -1 -14 -7 -28 -15z"/>
<path d="M661 217 c0 -11 -11 -27 -23 -37 -23 -18 -23 -19 -3 -26 11 -4 23
-12 27 -18 5 -7 8 -6 8 2 0 8 -9 16 -20 19 -19 5 -19 5 1 22 13 11 19 24 16
36 -4 18 -5 18 -6 2z"/>
<path d="M1817 200 c20 -21 25 -22 48 -12 15 7 31 10 36 7 5 -4 9 -1 9 5 0 18
-29 23 -57 11 -19 -9 -29 -9 -42 1 -9 6 -6 1 6 -12z"/>
<path d="M4727 200 c20 -21 25 -22 48 -12 15 7 31 10 36 7 5 -4 9 -1 9 5 0 18
-29 23 -57 11 -19 -9 -29 -9 -42 1 -9 6 -6 1 6 -12z"/>
<path d="M2318 193 c7 -3 16 -2 19 1 4 3 -2 6 -13 5 -11 0 -14 -3 -6 -6z"/>
<path d="M2685 173 c-33 -16 -40 -22 -21 -18 46 10 91 31 81 37 -6 3 -32 -6
-60 -19z"/>
<path d="M3377 189 c7 -7 15 -10 18 -7 3 3 -2 9 -12 12 -14 6 -15 5 -6 -5z"/>
<path d="M1297 178 c-10 -5 -15 -13 -12 -19 9 -14 25 -11 25 6 0 16 29 10 43
-9 6 -7 7 -6 5 3 -6 20 -41 31 -61 19z"/>
<path d="M3425 178 c5 -13 0 -21 -16 -27 -16 -6 -18 -10 -8 -10 25 -1 45 27
30 42 -10 9 -11 8 -6 -5z"/>
<path d="M5647 178 c-10 -5 -15 -13 -12 -19 9 -14 25 -11 25 6 0 16 29 10 43
-9 6 -7 7 -6 5 3 -6 20 -41 31 -61 19z"/>
<path d="M2380 176 c0 -4 16 -14 35 -22 25 -10 51 -12 92 -7 l58 8 -65 6 c-36
3 -77 10 -92 14 -16 4 -28 4 -28 1z"/>
<path d="M2585 170 c-13 -6 -15 -9 -5 -9 8 0 22 4 30 9 18 12 2 12 -25 0z"/>
<path d="M575 151 c-8 -15 3 -31 21 -31 9 0 14 7 12 17 -4 20 -24 28 -33 14z
m25 -11 c0 -5 -4 -10 -10 -10 -5 0 -10 5 -10 10 0 6 5 10 10 10 6 0 10 -4 10
-10z"/>
<path d="M1262 148 c2 -7 -21 -25 -50 -40 -43 -22 -58 -25 -79 -17 -23 8 -24
8 -13 -6 17 -21 33 -19 88 9 55 28 79 51 62 61 -6 4 -9 1 -8 -7z"/>
<path d="M5612 148 c2 -7 -21 -25 -50 -40 -43 -22 -58 -25 -79 -17 -23 8 -24
8 -13 -6 17 -21 33 -19 88 9 55 28 79 51 62 61 -6 4 -9 1 -8 -7z"/>
<path d="M542 121 c-11 -6 -10 -10 4 -15 20 -8 32 0 18 14 -5 5 -15 5 -22 1z"/>
<path d="M2549 108 c7 -10 11 -25 7 -33 -3 -9 -2 -13 4 -10 15 10 12 31 -7 46
-16 13 -17 12 -4 -3z"/>
<path d="M1083 63 c9 -2 23 -2 30 0 6 3 -1 5 -18 5 -16 0 -22 -2 -12 -5z"/>
<path d="M5433 63 c9 -2 23 -2 30 0 6 3 -1 5 -18 5 -16 0 -22 -2 -12 -5z"/>
<path d="M1070 41 c0 -6 4 -13 10 -16 6 -3 7 1 4 9 -7 18 -14 21 -14 7z"/>
<path d="M5420 41 c0 -6 4 -13 10 -16 6 -3 7 1 4 9 -7 18 -14 21 -14 7z"/>
</g>
</svg>
